<?xml version="1.0" encoding="utf-8"?>
<!-- Generator: Adobe Illustrator 17.1.0, SVG Export Plug-In . SVG Version: 6.00 Build 0)  -->
<!DOCTYPE svg PUBLIC "-//W3C//DTD SVG 1.1//EN" "http://www.w3.org/Graphics/SVG/1.1/DTD/svg11.dtd">
<svg version="1.1" id="Layer_1" xmlns="http://www.w3.org/2000/svg" xmlns:xlink="http://www.w3.org/1999/xlink" x="0px" y="0px"
	 viewBox="0 0 800 800" enable-background="new 0 0 800 800" xml:space="preserve">
<g id="XMLID_2_">
	<g>
		<path fill="#FFFFFF" d="M611.1,780.2c-9.6-55.8-11.4-722.1,0.3-761.1c0.1-0.2,0.1-0.3,0.2-0.5l0.7-3c1.7,0.6,2.8,1.3,3.3,1.9
			c13.1,33.6,8.9,691.3-1.6,762.7L611.1,780.2z"/>
		<path fill="#FFFFFF" d="M552.6,366.4c16.5,0,29.8,13.4,29.8,29.8S569.1,426,552.6,426c-16.5,0-29.8-13.4-29.8-29.8
			S536.1,366.4,552.6,366.4z"/>
		<path fill="#FFFFFF" d="M554.6,72.3c2.9,1.4,6.1,3.9,6.6,6.8c7.7,52.6,8.8,204.1-0.5,258.4c-0.3,2.8-3,5.3-6.7,6.6l-2.7-6.9
			c-7.8-54-7.1-203.9,0.5-257.8c0.1-0.5,0.1-1,0.2-1.4L554.6,72.3z"/>
		<path fill="#FFFFFF" d="M552.2,460.5c2.9,1.3,6,3.9,6.6,6.8c7.8,52.6,8.8,204.1-0.5,258.4c-0.3,2.8-3,5.3-6.7,6.6l-2.7-6.9
			c-7.8-54-7.1-203.8,0.4-257.8c0.1-0.5,0.1-1,0.2-1.5L552.2,460.5z"/>
		<path fill="#FFFFFF" d="M249.8,336.4c61.8-7.6,238.8-8.5,301.5,0.8l2.7,6.9c-1.2,0.5-2.6,0.8-4,1c-62.9,9.3-240.7,8.4-302,0.7
			c0,0-0.1,0-0.1,0c-3-0.7-4.8-3.6-5.8-7.7l6.9-1.5C249.2,336.5,249.5,336.4,249.8,336.4z"/>
		<path fill="#FFFFFF" d="M551.9,71.3c0.8,0.1,1.7,0.5,2.7,0.9l-2.7,5.7c-0.1,0.5-0.1,1-0.2,1.4l-1.1-0.2
			c-63,9.3-239.2,8.2-300.2,0.5h0c7.6,52.6,8.4,201.9-0.6,256.7c-0.3,0-0.6,0.1-0.9,0.1l-6.9,1.5c-0.1-0.5-0.2-0.9-0.3-1.4
			c0-0.1,0-0.2-0.1-0.3c-9.2-54.2-8.3-206.5-0.6-258.7c1.1-3.8,4.3-6.4,8.6-7c0.1,0,0.3,0,0.5-0.1C311.4,62.9,489.1,62.1,551.9,71.3
			z"/>
		<path fill="#FFFFFF" d="M247.4,724.6c61.8-7.6,238.8-8.5,301.5,0.8l2.7,6.9c-1.2,0.5-2.6,0.8-4,1c-62.9,9.3-241.1,8.4-302.2,0.7
			c-3-0.7-4.7-3.7-5.8-7.7l6.9-1.5C246.9,724.7,247.2,724.6,247.4,724.6z"/>
		<path fill="#FFFFFF" d="M549.6,466.2c-0.1,0.5-0.1,1-0.2,1.5l-1.1-0.2c-63,9.3-239.3,8.2-300.3,0.5c7.6,52.7,8.4,201.9-0.6,256.7
			c-0.3,0-0.6,0.1-0.9,0.1l-6.9,1.5c-0.1-0.5-0.2-0.9-0.3-1.4c0-0.1,0-0.2-0.1-0.3c-9.2-54.2-8.3-206.5-0.6-258.7
			c1.1-3.9,4.5-6.6,9-7c61.4-7.7,239.1-8.5,301.9,0.7c0.8,0.2,1.7,0.5,2.7,0.9L549.6,466.2z"/>
		<path fill="#FFFFFF" d="M188.6,17.6c12.1-17.8,382.8-16.7,423.7-1.9l-0.7,3c-0.1,0.1-0.1,0.3-0.2,0.5c-13,8.1-398.4,9.1-419.1,0.3
			c-0.2-0.1-0.5-0.2-0.6-0.3h-3.6C188.2,18.5,188.4,18,188.6,17.6z"/>
		<path fill="#FFFFFF" d="M613.6,782.9c-12.6,18.6-414.4,16.6-427,0c-0.1-0.4-0.2-0.9-0.2-1.4l7.5-1.2c0.1-0.1,0.2-0.1,0.3-0.2
			c17.9-8.7,404.7-7.7,416.9,0.2l2.9,0.1C613.9,781.3,613.7,782.1,613.6,782.9z"/>
		<path fill="#FFFFFF" d="M192.3,19.4c13,37.4,12.6,702.3,1.9,760.6c-0.1,0.1-0.2,0.1-0.3,0.2l-7.5,1.2
			c-10.5-64.3-10.9-714,1.8-762.4h3.6C191.9,19.2,192.1,19.3,192.3,19.4z"/>
	</g>
	<g>
	</g>
</g>
</svg>
