<?xml version="1.0" encoding="utf-8"?>
<!-- Generator: Adobe Illustrator 17.1.0, SVG Export Plug-In . SVG Version: 6.00 Build 0)  -->
<!DOCTYPE svg PUBLIC "-//W3C//DTD SVG 1.1//EN" "http://www.w3.org/Graphics/SVG/1.1/DTD/svg11.dtd">
<svg version="1.1" id="Layer_1" xmlns="http://www.w3.org/2000/svg" xmlns:xlink="http://www.w3.org/1999/xlink" x="0px" y="0px"
	 viewBox="0 0 1800 800" enable-background="new 0 0 1800 800" xml:space="preserve">
<g opacity="0.8">
	<defs>
		<filter id="Adobe_OpacityMaskFilter" filterUnits="userSpaceOnUse" x="32.4" y="4.1" width="1735.2" height="791.7">
			<feFlood  style="flood-color:white;flood-opacity:1" result="back"/>
			<feBlend  in="SourceGraphic" in2="back" mode="normal"/>
		</filter>
	</defs>
	<mask maskUnits="userSpaceOnUse" x="32.4" y="4.1" width="1735.2" height="791.7" id="SVGID_1_">
		<g filter="url(#Adobe_OpacityMaskFilter)">
			<image overflow="visible" width="1740" height="796" xlink:href="DBBECEC4143A1BDE.jpg"  transform="matrix(1 0 0 1 30 2)">
			</image>
		</g>
	</mask>
	<g mask="url(#SVGID_1_)">
		<defs>
			<filter id="Adobe_OpacityMaskFilter_1_" filterUnits="userSpaceOnUse" x="32.4" y="4.1" width="1735.2" height="791.7">
				<feFlood  style="flood-color:white;flood-opacity:1" result="back"/>
				<feBlend  in="SourceGraphic" in2="back" mode="normal"/>
			</filter>
		</defs>
		<mask maskUnits="userSpaceOnUse" x="32.4" y="4.1" width="1735.2" height="791.7" id="SVGID_1_">
			<g filter="url(#Adobe_OpacityMaskFilter_1_)">
				<image overflow="visible" width="1740" height="796" xlink:href="DBBECEC4143A1BE2.jpg"  transform="matrix(1 0 0 1 30 2)">
				</image>
			</g>
		</mask>
		<g>
			<g>
				<g>
					<g>
						<g id="XMLID_15_">
							<defs>
								<filter id="Adobe_OpacityMaskFilter_2_" filterUnits="userSpaceOnUse" x="32.4" y="4.1" width="1735.2" height="791.7">
									<feFlood  style="flood-color:white;flood-opacity:1" result="back"/>
									<feBlend  in="SourceGraphic" in2="back" mode="normal"/>
								</filter>
							</defs>
							<mask maskUnits="userSpaceOnUse" x="32.4" y="4.1" width="1735.2" height="791.7" id="SVGID_1_">
								<g filter="url(#Adobe_OpacityMaskFilter_2_)">
									
										<image overflow="visible" width="1740" height="796" xlink:href="DBBECEC4143A1BE5.jpg"  transform="matrix(1 0 0 1 30 2)">
									</image>
								</g>
							</mask>
							<g>
								<g>
									<g>
										<path fill="#FFFFFF" d="M1766.5,11v19.4c0,3-1.5,4.6-4.6,4.6h-1.2c3.1,0,4.6-1.6,4.6-4.6V11c0-3.2-1.5-4.7-4.6-4.7h1.2
											C1765,6.4,1766.5,7.8,1766.5,11z"/>
										<path fill="#FFFFFF" d="M1766.5,256.3v19.5c0,3.1-1.5,4.7-4.6,4.7h-1.2c3.1,0,4.6-1.6,4.6-4.7v-19.5c0-3-1.5-4.6-4.6-4.6
											h1.2C1765,251.7,1766.5,253.3,1766.5,256.3z"/>
										<path fill="#FFFFFF" d="M1761.8,746.7c-0.5-0.1-1-0.1-1.5-0.1h-36.7l-0.5-1h34.1C1759.2,745.6,1760.8,746,1761.8,746.7z"
											/>
										<path fill="#FFFFFF" d="M1767.6,753.8v30.6c0,4.9-2.3,7.3-7.2,7.3h-52.2c-4.5,0-8.8-1-12.8-2.8c3.1,1.1,6.4,1.7,9.9,1.7
											h52.1c4.9,0,7.2-2.3,7.2-7.2v-30.5c0-2.9-0.9-5-2.7-6.1C1765.7,747,1767.6,749.5,1767.6,753.8z"/>
										<rect x="1731.4" y="35" fill="#FFFFFF" width="1.2" height="216.7"/>
										<polygon fill="#FFFFFF" points="1699.3,61.7 1699.3,251.7 1698.2,251.7 1698.2,63.7 1699,61.7 										"/>
										<path fill="#FFFFFF" d="M1698.2,61.7v1.9l-71.7,178.1c-3.1,7.6-8.8,11.5-16.8,11.5c-0.2,0-0.4,0-0.6,0
											c7.9-0.2,13.3-4.1,16.2-11.5l10.7-26.7l61.9-153.4H1698.2z"/>
										<path fill="#FFFFFF" d="M1693.1,393.9c26.8,22.7,40.3,54.7,40.3,95.9c0,62.9-29.5,102.2-88.3,117.8
											c7.6,6,17,19.5,28.2,40.3l50,97.7h-2.4l-50.4-98.3c-11.2-20.8-20.5-34.2-28.1-40.2c58.8-15.7,88.1-54.8,88.1-117.5
											c0-41.2-13.4-73.2-40.2-95.7c-25.2-21.2-57.3-32.4-96.4-33.8C1634.2,360.9,1667.4,372.2,1693.1,393.9z"/>
										<path fill="#FFFFFF" d="M1760.8,6.4c3.1,0,4.6,1.5,4.6,4.7v19.4c0,3-1.5,4.6-4.6,4.6h-28.2h-1.2v216.7h1.2h28.2
											c3.1,0,4.6,1.6,4.6,4.6v19.5c0,3.1-1.5,4.7-4.6,4.7h-87c-3,0-4.6-1.6-4.6-4.7v-19.5c0-3,1.6-4.6,4.6-4.6h24.4h1.1v-190
											h-0.3l-0.8,1.9v-1.9h-0.3l-61.9,153.4l-25.6-10.3c7.1-19.9,12.9-35.7,17.5-47.4l57.3-138.1c3.3-8.6,9.3-12.9,18.4-12.9
											H1760.8z"/>
										<path fill="#FFFFFF" d="M1669.2,275.7c0,3.1,1.6,4.7,4.6,4.7h-1.2c-3,0-4.6-1.6-4.6-4.7v-19.5c0-3,1.6-4.6,4.6-4.6h1.2
											c-3,0-4.6,1.6-4.6,4.6V275.7z"/>
										<path fill="#FFFFFF" d="M1684.1,19.3c3.3-8.6,9.4-12.9,18.4-12.9h1.2c-9,0-15.1,4.4-18.4,12.9L1628,157.4
											c-4.6,11.7-10.4,27.4-17.5,47.4h-1.1c7.1-19.9,12.9-35.7,17.5-47.4L1684.1,19.3z"/>
										<path fill="#FFFFFF" d="M1600.2,625.7c5.4,4.8,10.5,12.2,15.4,22.2l56.5,114.9c6.5,13,14.1,21.7,22.9,25.9
											c-9.9-3.6-18.5-12.5-25.7-26.9l-56.4-114.5c-4.8-10-9.8-17.4-15.3-22.2c-3-2.7-6.6-4.7-11-5.9
											C1592,620.3,1596.6,622.5,1600.2,625.7z"/>
										<path fill="#FFFFFF" d="M1608.9,204.8h0.5h1.1l25.6,10.3l-10.7,26.7c-2.9,7.4-8.4,11.3-16.2,11.5
											c-7.9-0.2-13.3-4.1-16.1-11.5l-10.8-26.7l25.6-10.3H1608.9z"/>
										<path fill="#FFFFFF" d="M1578.3,575.2h-77v-0.6h74.4c68,0,101.9-27.8,101.9-83.4c0-53.9-29.8-82.6-89.3-86.1
											c61.4,2.8,92.1,31.6,92.1,86.5C1680.4,547.3,1646.4,575.2,1578.3,575.2z"/>
										<path fill="#FFFFFF" d="M1557.5,746.7c-0.6-0.1-1.3-0.2-2-0.2h-54.2v-1h51.7C1554.8,745.6,1556.3,746,1557.5,746.7z"/>
										<path fill="#FFFFFF" d="M1550.3,256.3v19.5c0,3.1-1.8,4.7-5.1,4.7h-1.2c3.3,0,5.1-1.6,5.1-4.7v-19.5c0-3-1.8-4.6-5.1-4.6
											h1.2C1548.5,251.7,1550.3,253.3,1550.3,256.3z"/>
										<path fill="#FFFFFF" d="M1534.1,19.3l56.8,137.4l18,48.2h-1.2l-17.9-48.2l-56.9-137.4c-3.2-8.6-9.2-12.9-18-12.9h1.2
											C1524.9,6.4,1530.8,10.7,1534.1,19.3z"/>
										<path fill="#FFFFFF" d="M1593,241.8c2.8,7.4,8.3,11.3,16.1,11.5c-0.2,0-0.4,0-0.6,0c-8.1,0-13.6-3.9-16.7-11.5
											l-72.2-179.4v-0.7h0.8l61.8,153.4L1593,241.8z"/>
										<polygon fill="#FFFFFF" points="1519.6,62.4 1519.6,251.7 1518.5,251.7 1518.5,61.7 1519.3,61.7 										"/>
										<path fill="#FFFFFF" d="M1501.2,617.9v127.7h-2.3V617.3h76.2c4.3,0.2,8.1,0.8,11.5,1.8c-2.7-0.7-5.7-1.1-8.9-1.3H1501.2z"
											/>
										<path fill="#FFFFFF" d="M1498.9,404.9h76.8c3,0,6,0.1,8.9,0.2c-2.1-0.1-4.2-0.1-6.3-0.1h-77v169.7h-2.3V404.9z"/>
										<rect x="1485.4" y="35" fill="#FFFFFF" width="1.2" height="216.7"/>
										<path fill="#FFFFFF" d="M1457.5,251.7h27.9h1.2V35h-1.2h-27.9c-3.2,0-5-1.6-5-4.6V11c0-3.2,1.8-4.7,5-4.7h57.5
											c8.8,0,14.8,4.4,18,12.9l56.9,137.4l17.9,48.2l-25.6,10.3l-61.8-153.4h-0.8v0.7l-0.3-0.7h-0.8v190h1.1h24.4
											c3.3,0,5.1,1.6,5.1,4.6v19.5c0,3.1-1.8,4.7-5.1,4.7h-86.6c-3.2,0-5-1.6-5-4.7v-19.5
											C1452.5,253.3,1454.2,251.7,1457.5,251.7z"/>
										<path fill="#FFFFFF" d="M1452.5,256.3v19.5c0,3.1,1.8,4.7,5,4.7h-1.2c-3.2,0-4.9-1.6-4.9-4.7v-19.5c0-3,1.7-4.6,4.9-4.6
											h1.2C1454.2,251.7,1452.5,253.3,1452.5,256.3z"/>
										<path fill="#FFFFFF" d="M1457.5,6.4c-3.2,0-5,1.5-5,4.7v19.4c0,3,1.8,4.6,5,4.6h-1.2c-3.2,0-4.9-1.6-4.9-4.6V11
											c0-3.2,1.7-4.7,4.9-4.7H1457.5z"/>
										<path fill="#FFFFFF" d="M1555.4,791.7h-152.1c-2.4,0-4.3-0.5-5.5-1.7c1,0.3,2.1,0.5,3.4,0.5h151.8c4.8,0,7.2-2.3,7.2-7.2
											v-30.5c0-2.8-0.9-4.9-2.6-6c3.4,0.7,5.2,3,5.2,7v30.6C1562.6,789.3,1560.2,791.7,1555.4,791.7z"/>
										<path fill="#FFFFFF" d="M1501.2,574.7v0.6h77c68.1,0,102.1-27.9,102.1-83.6c0-54.9-30.7-83.7-92.1-86.5
											c-1.3,0-2.4-0.1-3.7-0.1c-2.9-0.1-5.9-0.2-8.9-0.2h-76.8v169.8H1501.2z M1403.3,746.6h45.7V405h-2.2v-0.1h-45.3
											c-4-0.5-5.9-2.8-5.9-7.1v-30.6c0-4.8,2.5-7.2,7.8-7.2h182.6c2.6,0,5.4,0,8,0.1c39.1,1.4,71.2,12.5,96.4,33.8
											c26.8,22.6,40.2,54.5,40.2,95.7c0,62.7-29.4,101.9-88.1,117.5c7.6,5.9,16.9,19.4,28.1,40.2l50.4,98.3h2.4l0.5,1h36.7
											c0.5,0,1,0,1.5,0.1c1.8,1.2,2.7,3.2,2.7,6.1v30.5c0,4.9-2.3,7.2-7.2,7.2h-52.1c-3.5,0-6.8-0.6-9.9-1.7
											c-0.2-0.1-0.3-0.1-0.4-0.2c-8.8-4.2-16.3-12.8-22.9-25.9l-56.5-114.9c-4.9-10-9.9-17.4-15.4-22.2
											c-3.6-3.2-8.2-5.4-13.6-6.6c-3.4-1.1-7.2-1.7-11.5-1.8h-76.2v128.3h2.3v1h54.2c0.8,0,1.5,0.1,2,0.2c1.8,1.2,2.6,3.2,2.6,6
											v30.5c0,4.9-2.4,7.2-7.2,7.2h-151.8c-1.3,0-2.4-0.2-3.4-0.5c-1.6-1.2-2.2-3-2.2-5.6v-30.6
											C1395.5,749,1398,746.6,1403.3,746.6z"/>
										<path fill="#FFFFFF" d="M1446.8,404.9L1446.8,404.9l-43.5,0.1c-0.7,0-1.3,0-1.8-0.1H1446.8z"/>
										<path fill="#FFFFFF" d="M1393.3,397.7v-30.5c0-4.8,2.6-7.2,7.8-7.2h2.1c-5.3,0-7.8,2.4-7.8,7.2v30.6
											c0,4.3,1.9,6.6,5.9,7.1h-0.3C1396,404.9,1393.3,402.6,1393.3,397.7z"/>
										<path fill="#FFFFFF" d="M1393.3,783.3v-30.5c0-4.8,2.6-7.2,7.8-7.2h45.6V405h2.2v341.5h-45.7c-5.3,0-7.8,2.4-7.8,7.2v30.6
											c0,2.6,0.7,4.5,2.2,5.6C1394.8,789.2,1393.3,787,1393.3,783.3z"/>
										<path fill="#FFFFFF" d="M1432.4,142c0-41.8-13-75.3-39-100.3c-24.2-23.5-53.2-35.9-86.7-37.4c34,1.2,63.2,13.5,87.8,37.4
											c26,25,38.9,58.5,38.9,100.3c0,41.9-12.5,75.8-37.6,101.9c-23.7,24.7-53.3,37.6-88.7,38.8c34.9-1.5,64.1-14.4,87.6-38.8
											C1419.7,217.7,1432.4,183.9,1432.4,142z"/>
										<path fill="#FFFFFF" d="M1368.2,63c19.8,19.3,29.7,45.7,29.7,79.8s-9.6,60.7-29.1,80.2c-18.4,18.6-39.8,28.2-64.2,29.1
											c23.9-1.2,44.9-10.9,63.1-29.1c19.4-19.5,29-46.1,29-80.2s-9.8-60.5-29.6-79.8c-18.4-18-39.4-27.5-62.6-28.7
											C1328.3,35.1,1349.6,44.7,1368.2,63z"/>
										<path fill="#FFFFFF" d="M1231.8,222.9c-19.5-19.5-29.3-46.1-29.3-80.2s10-60.5,29.9-79.8c18.8-18.3,40.2-27.9,64-28.7
											C1273,35.4,1252,45,1233.4,63c-19.8,19.3-29.8,45.7-29.8,79.8s9.8,60.7,29.2,80.2c18.3,18.2,39.4,27.9,63.3,29.1
											C1271.7,251.1,1250.3,241.5,1231.8,222.9z"/>
										<path fill="#FFFFFF" d="M1296.4,34.3c-23.8,0.8-45.2,10.4-64,28.7c-19.8,19.3-29.9,45.7-29.9,79.8s9.8,60.7,29.3,80.2
											c18.6,18.6,40,28.2,64.4,29.1c1.7,0.1,3.2,0.1,4.9,0.1c1.3,0,2.4,0,3.6-0.1c24.4-0.9,45.8-10.5,64.2-29.1
											c19.5-19.5,29.1-46.1,29.1-80.2s-9.8-60.5-29.7-79.8c-18.7-18.3-40-27.9-63.7-28.7c-1.2-0.1-2.3-0.1-3.5-0.1
											C1299.5,34.2,1297.9,34.2,1296.4,34.3z M1167.9,141.6c0-41.5,13-74.9,39.2-99.9c24.5-23.5,53.7-35.9,87.2-37.4
											c2.2-0.2,4.6-0.2,6.8-0.2c1.8,0,3.8,0,5.6,0.2c33.5,1.5,62.5,13.8,86.7,37.4c26,25,39,58.5,39,100.3
											c0,41.9-12.6,75.8-37.6,101.9c-23.5,24.4-52.7,37.4-87.6,38.8c-1.9,0.2-3.9,0.2-5.8,0.2c-2.3,0-4.8-0.1-7-0.2
											c-35-1.5-64.3-14.5-88.3-39.2C1180.6,217.2,1167.9,183.2,1167.9,141.6z"/>
										<path fill="#FFFFFF" d="M1166.8,141.6c0-41.5,12.9-74.9,39.1-99.9c24.9-23.8,54.4-36.2,88.3-37.4
											c-33.5,1.5-62.6,13.8-87.2,37.4c-26.2,25-39.2,58.4-39.2,99.9c0,41.6,12.7,75.6,38,101.9c24,24.7,53.3,37.7,88.3,39.2
											c-35.5-1.2-65.3-14.2-89.4-39.2C1179.4,217.2,1166.8,183.2,1166.8,141.6z"/>
										<path fill="#FFFFFF" d="M1156.8,747.1c-30.6,0-58.5-8.6-83.4-25.9c24.5,16.6,51.8,24.9,81.9,24.9
											c40.8,0,76.4-15.3,106.7-45.9c30.4-30.5,45.5-72.5,45.5-125.9c0-53.4-15.5-95.1-46.4-125.4
											c-27.1-26.4-57.6-41.2-91.2-44.6c34.4,3,65.4,18,93,44.8c31,30.3,46.6,72.1,46.6,125.6c0,53.6-15.3,95.6-45.7,126.3
											C1233.3,731.9,1197.6,747.1,1156.8,747.1z"/>
										<path fill="#FFFFFF" d="M1157.1,795.9c-52.9,0-98.2-16.1-135.6-48.6c37.1,31.7,81.8,47.5,134.1,47.5
											c59.7,0,109.3-20.4,148.7-61.5c39.3-41,59-94.3,59-160.1c0-65.8-20.4-118.3-61.2-157.7c-38.2-37-83.7-56.5-136.3-58.9
											c53.4,1.9,99.5,21.7,138.1,59c40.9,39.5,61.3,92.1,61.3,158.1s-19.7,119.5-59.1,160.5
											C1266.7,775.3,1217,795.9,1157.1,795.9z"/>
										<path fill="#FFFFFF" d="M1101.9,143.7c0,67.4-31.5,103.2-94.4,107.5c62-4.7,93.2-40.5,93.2-107.5
											c0-34.4-9.1-61.1-27.3-80.2c-17.1-18-41.5-27.3-73.4-28.5c32.4,0.9,57.3,10.3,74.6,28.5
											C1092.7,82.6,1101.9,109.3,1101.9,143.7z"/>
										<path fill="#FFFFFF" d="M1049.1,449c-31.1,30.3-46.7,72-46.7,125.4c0,53.4,15.3,95.3,45.8,125.9
											c4.2,4.2,8.6,8.2,12.9,11.7c4,3.4,8.1,6.4,12.3,9.3c24.9,17.3,52.7,25.9,83.4,25.9c40.9,0,76.6-15.3,107-46
											c30.4-30.6,45.7-72.7,45.7-126.3c0-53.5-15.6-95.3-46.6-125.6c-27.6-26.8-58.6-41.8-93-44.8c-1.8-0.2-3.8-0.3-5.7-0.4
											c-2.9-0.2-5.8-0.3-8.9-0.3C1115.7,403.7,1080.3,418.8,1049.1,449z M1155.6,794.7c-52.3,0-97.1-15.8-134.1-47.5
											c-5-4.3-9.7-8.8-14.4-13.6c-40.1-41.4-60.1-94.9-60.1-160.5s20.6-118,61.9-157.5c38.7-37.1,84.5-56.7,137.4-59
											c3-0.1,6-0.2,9.1-0.2c3.6,0,7.1,0.1,10.6,0.2c52.6,2.3,98.1,21.9,136.3,58.9c40.8,39.4,61.2,91.9,61.2,157.7
											c0,65.9-19.7,119.2-59,160.1C1264.9,774.3,1215.3,794.7,1155.6,794.7z"/>
										<path fill="#FFFFFF" d="M1101,243.5c-22.4,23.2-52.3,35.5-89.8,36.8c37-1.5,66.4-13.8,88.6-36.8
											c23.7-24.6,35.6-58.1,35.6-100.6S1123,67.1,1098,42.8c-23.4-22.8-54.4-34.9-93-36.4c39.1,1.3,70.5,13.3,94.2,36.4
											c24.9,24.2,37.4,57.6,37.4,100.1S1124.7,218.9,1101,243.5z"/>
										<path fill="#FFFFFF" d="M1007.5,251.2c-1.8,0.2-3.5,0.3-5.3,0.3C1004,251.4,1005.8,251.3,1007.5,251.2z"/>
										<path fill="#FFFFFF" d="M1002.4,574.4c0-53.4,15.6-95.1,46.7-125.4c31.2-30.2,66.6-45.2,106.2-45.2c3,0,5.9,0.1,8.9,0.3
											c-2.4-0.1-4.9-0.2-7.4-0.2c-39.7,0-75.2,15.2-106.4,45.4c-31.2,30.3-46.9,72.1-46.9,125.6c0,53.6,15.3,95.6,46,126.3
											c3.8,3.8,7.7,7.5,11.7,10.8c-4.4-3.5-8.8-7.5-12.9-11.7C1017.7,669.7,1002.4,627.8,1002.4,574.4z"/>
										<path fill="#FFFFFF" d="M1000,35.1c-1.7,0-3.4-0.1-5.3-0.1C996.5,35,998.2,35,1000,35.1z"/>
										<rect x="956.9" y="35" fill="#FFFFFF" width="1.1" height="216.7"/>
										<path fill="#FFFFFF" d="M946,572.5c0-65.4,20.6-117.7,61.8-157.1c38.9-37.3,85.1-56.9,138.4-58.9
											c-52.8,2.3-98.6,22-137.4,59c-41.2,39.5-61.9,91.9-61.9,157.5s20,119.1,60.1,160.5c-0.4-0.3-0.7-0.6-1.1-1
											C966,691.3,946,637.9,946,572.5z"/>
										<rect x="923.7" y="35" fill="#FFFFFF" width="1.1" height="216.7"/>
										<path fill="#FFFFFF" d="M957.9,251.7h37.8c2.2,0,4.4-0.1,6.5-0.2c1.8,0,3.5-0.1,5.3-0.3c62.8-4.3,94.4-40.1,94.4-107.5
											c0-34.4-9.2-61.1-27.3-80.2c-17.3-18.2-42.2-27.6-74.6-28.5c-1.8-0.1-3.5-0.1-5.3-0.1h-36.8h-1.1v216.7H957.9z M895.5,6.4
											h102.9c2.2,0,4.5,0,6.6,0.1c38.6,1.5,69.6,13.6,93,36.4c25,24.2,37.5,57.6,37.5,100.1s-11.9,76-35.6,100.6
											c-22.2,23-51.7,35.3-88.6,36.8c-2,0.1-4.2,0.1-6.3,0.1H895.5c-3.2,0-4.6-1.6-4.6-4.7v-19.5c0-3,1.4-4.6,4.6-4.6h28.2h1.1
											V35h-1.1h-28.2c-3.2,0-4.6-1.6-4.6-4.6V11C890.9,7.8,892.3,6.4,895.5,6.4z"/>
										<path fill="#FFFFFF" d="M890.9,256.3v19.5c0,3.1,1.4,4.7,4.6,4.7h-1.2c-3.1,0-4.6-1.6-4.6-4.7v-19.5c0-3,1.5-4.6,4.6-4.6
											h1.2C892.3,251.7,890.9,253.3,890.9,256.3z"/>
										<path fill="#FFFFFF" d="M890.9,11v19.4c0,3,1.4,4.6,4.6,4.6h-1.2c-3.1,0-4.6-1.6-4.6-4.6V11c0-3.2,1.5-4.7,4.6-4.7h1.2
											C892.3,6.4,890.9,7.8,890.9,11z"/>
										<path fill="#FFFFFF" d="M860.3,30.4V11c0-3.2-1.5-4.7-4.6-4.7h1.2c3,0,4.5,1.5,4.5,4.7v19.4c0,3-1.5,4.6-4.5,4.6h-1.2
											C858.8,35,860.3,33.4,860.3,30.4z"/>
										<path fill="#FFFFFF" d="M827.4,35v240.8c0,3.1-1.6,4.7-5,4.7h-1.1c3.3,0,5-1.6,5-4.7V35H827.4z"/>
										<polygon fill="#FFFFFF" points="794.3,35 794.3,226.5 793.5,226.5 793.1,225.8 793.1,35 										"/>
										<path fill="#FFFFFF" d="M764.8,6.4c-2.9,0-4.5,1.5-4.5,4.7v19.4c0,3,1.6,4.6,4.5,4.6h-1.2c-2.9,0-4.5-1.6-4.5-4.6V11
											c0-3.2,1.6-4.7,4.5-4.7H764.8z"/>
										<path fill="#FFFFFF" d="M734.7,415c-8.8-3.7-17.7-6.5-26.9-8.4C717,408.5,725.9,411.3,734.7,415z"/>
										<path fill="#FFFFFF" d="M686.6,256.3v19.5c0,3.1-1.6,4.7-5,4.7h-1.1c3.3,0,5-1.6,5-4.7v-19.5c0-3-1.7-4.6-5-4.6h1.1
											C685.1,251.7,686.6,253.3,686.6,256.3z"/>
										<path fill="#FFFFFF" d="M672.1,96.1l110.3,172.5c2.5,4.1,5.3,7,8.1,8.9c2.8,1.9,6.6,2.9,11.4,2.9h-1.2
											c-4.8,0-8.6-1-11.4-2.9c-2.8-1.9-5.5-4.9-8.1-8.9L671,96.1l-18.6-31.3V64h0.8L672.1,96.1z"/>
										<polygon fill="#FFFFFF" points="652.4,64.7 652.4,251.7 651.2,251.7 651.2,64 652,64 										"/>
										<path fill="#FFFFFF" d="M663.1,19.3l108.7,170.3l21.4,36.2v0.7h-0.8l-21.8-36.9L661.9,19.3c-5.6-8.6-12.2-12.9-19.5-12.9
											h1.1C650.9,6.4,657.4,10.7,663.1,19.3z"/>
										<rect x="618" y="35" fill="#FFFFFF" width="1.1" height="216.7"/>
										<path fill="#FFFFFF" d="M590,6.4h52.4c7.3,0,13.8,4.4,19.5,12.9l108.7,170.3l21.8,36.9h0.8v-0.7l0.4,0.7h0.8V35h-1.2
											h-28.3c-2.9,0-4.5-1.6-4.5-4.6V11c0-3.2,1.6-4.7,4.5-4.7h90.9c3.1,0,4.6,1.5,4.6,4.7v19.4c0,3-1.5,4.6-4.6,4.6h-28.3h-1.1
											v240.8c0,3.1-1.7,4.7-5,4.7h-19.5c-4.8,0-8.6-1-11.4-2.9c-2.8-1.9-5.5-4.9-8.1-8.9L672.1,96.1l-19-32h-0.8v0.7L652,64
											h-0.8v187.6h1.2h28.2c3.3,0,5,1.6,5,4.6v19.5c0,3.1-1.7,4.7-5,4.7H590c-3.2,0-4.9-1.6-4.9-4.7v-19.5c0-3,1.7-4.6,4.9-4.6
											h28h1.1V35H618h-28c-3.2,0-4.9-1.6-4.9-4.6V11C585.2,7.8,586.8,6.4,590,6.4z"/>
										<path fill="#FFFFFF" d="M584,30.4V11c0-3.2,1.7-4.7,5-4.7h1.1c-3.2,0-4.9,1.5-4.9,4.7v19.4c0,3,1.7,4.6,4.9,4.6H589
											C585.6,35,584,33.4,584,30.4z"/>
										<path fill="#FFFFFF" d="M584,275.7v-19.5c0-3,1.7-4.6,5-4.6h1.1c-3.2,0-4.9,1.6-4.9,4.6v19.5c0,3.1,1.7,4.7,4.9,4.7H589
											C585.6,280.4,584,278.8,584,275.7z"/>
										<path fill="#FFFFFF" d="M570.7,256.3c0-3-1.6-4.6-4.6-4.6h1.1c3.1,0,4.7,1.6,4.7,4.6v19.5c0,3.1-1.6,4.7-4.7,4.7h-1.1
											c3,0,4.6-1.6,4.6-4.7V256.3z"/>
										<path fill="#FFFFFF" d="M555,395.4c13.8-10,28.4-18.1,43.8-24.2C583.4,377.4,568.8,385.5,555,395.4z"/>
										<path fill="#FFFFFF" d="M678.8,403.8c-39.7,0-75.2,15.2-106.4,45.4c-11.7,11.3-21.2,24.1-28.5,38.6
											c7.2-14.6,16.7-27.5,28.4-38.9c31.2-30.2,66.6-45.2,106.2-45.2c7.6,0,14.9,0.6,22.1,1.7
											C693.5,404.3,686.2,403.8,678.8,403.8z"/>
										<path fill="#FFFFFF" d="M678.5,403.7c-39.6,0-75,15.1-106.2,45.2c-11.7,11.4-21.2,24.3-28.4,38.9
											c-0.1,0.1-0.1,0.2-0.1,0.3c-1.4,2.4-2.5,5-3.5,7.5c-2.4,5.4-4.5,11-6.1,16.7c-5.8,18.7-8.8,39.5-8.8,62.5
											c0,53.6,15.4,95.6,46,126.3c30.6,30.7,66.4,46,107.4,46c40.9,0,76.5-15.3,107-46c30.4-30.6,45.6-72.7,45.6-126.3
											c0-53.5-15.5-95.3-46.6-125.6c-9.9-9.7-20.2-17.8-31.1-24.3c-6.2-3.8-12.5-7.1-19.1-9.9c-8.8-3.7-17.7-6.5-26.9-8.4
											c-2.3-0.5-4.7-1-7.1-1.3C693.4,404.3,686.1,403.7,678.5,403.7z M529.2,732.6c-40-41.3-60-94.7-60-160.1
											c0-36.8,6.5-69.5,19.6-98c7.4-16.2,16.9-31.1,28.5-44.7c4.3-5,8.9-9.7,13.6-14.3c2.5-2.4,5.2-4.9,7.8-7.2l0.1-0.1
											c4.8-4.1,9.6-8,14.6-11.7c0.5-0.5,1.1-0.9,1.7-1.3c13.8-9.9,28.4-18,43.8-24.2c24.5-9.8,51.2-14.8,79.8-14.8
											c10.7,0,21.1,0.7,31.3,2c43.9,6,82.5,25,115.6,57c40.8,39.4,61.2,91.9,61.2,157.7c0,65.9-19.7,119.2-59,160.1
											c-39.4,41.1-89,61.5-148.7,61.5C619,794.7,569.1,774.1,529.2,732.6z"/>
										<path fill="#FFFFFF" d="M538.8,408.3c4.8-4.2,9.6-8.1,14.6-11.7C548.4,400.3,543.5,404.2,538.8,408.3z"/>
										<path fill="#FFFFFF" d="M543.8,488.2c-1.3,2.4-2.4,5-3.5,7.5C541.3,493.1,542.5,490.6,543.8,488.2z"/>
										<path fill="#FFFFFF" d="M538.7,408.4c-2.6,2.3-5.3,4.8-7.8,7.2l0.1-0.2C533.5,413,536,410.7,538.7,408.4z"/>
										<path fill="#FFFFFF" d="M525.6,574.4c0,53.4,15.3,95.3,45.8,125.9c30.6,30.6,66.2,45.9,107.1,45.9
											c40.8,0,76.4-15.3,106.7-45.9c30.4-30.5,45.5-72.5,45.5-125.9c0-53.4-15.5-95.1-46.4-125.4c-9.8-9.5-20-17.5-30.6-24
											c10.9,6.5,21.2,14.6,31.1,24.3c31.1,30.3,46.6,72.1,46.6,125.6c0,53.6-15.2,95.6-45.6,126.3c-30.5,30.7-66.1,46-107,46
											c-41,0-76.8-15.3-107.4-46c-30.6-30.6-46-72.7-46-126.3c0-23,2.9-43.8,8.8-62.5C528.4,531,525.6,551.6,525.6,574.4z"/>
										<path fill="#FFFFFF" d="M517.3,429.9c4.3-5,8.9-9.8,13.6-14.3C526.1,420.2,521.5,425,517.3,429.9z"/>
										<polygon fill="#FFFFFF" points="482.9,185.6 507.6,251.7 506.6,251.7 481.8,185.6 										"/>
										<path fill="#FFFFFF" d="M476.4,275.7c0,3.1,1.5,4.7,4.6,4.7h-1.1c-3.1,0-4.7-1.6-4.7-4.7v-19.5c0-3,1.6-4.6,4.7-4.6h1.1
											c-3.1,0-4.6,1.6-4.6,4.6V275.7z"/>
										<polygon fill="#FFFFFF" points="430.3,46.1 472.6,159.4 471.4,159.4 429.1,46.1 										"/>
										<path fill="#FFFFFF" d="M469.2,572.5c0,65.4,20,118.8,60,160.1c39.9,41.4,89.8,62.1,149.6,62.1
											c59.7,0,109.3-20.4,148.7-61.5c39.3-41,59-94.3,59-160.1c0-65.8-20.4-118.3-61.2-157.7c-33.1-32-71.7-51-115.6-57
											c44.2,5.9,82.9,25,116.2,57.2c40.9,39.5,61.3,92.1,61.3,158.1s-19.7,119.5-59.2,160.5c-39.5,41.1-89.2,61.7-149,61.7
											c-59.9,0-110-20.7-150-62.3c-40.2-41.4-60.2-94.9-60.2-160.5c0-37,6.6-69.8,19.8-98.5
											C475.7,503.1,469.2,535.8,469.2,572.5z"/>
										<path fill="#FFFFFF" d="M445.4,10.2c3.1,2.5,5.8,6.7,8.2,12.5l87.7,229h-1.2l-87.7-229c-2.3-5.8-5-10-8.2-12.5
											c-3.1-2.5-7.8-3.8-13.9-3.8h1.2C437.5,6.4,442.3,7.6,445.4,10.2z"/>
										<polygon fill="#FFFFFF" points="429.1,46.1 386.3,159.4 385.3,159.4 428,46.1 										"/>
										<path fill="#FFFFFF" d="M383,256.3v19.5c0,3.1-1.7,4.7-4.7,4.7h-1.1c2.9,0,4.6-1.6,4.6-4.7v-19.5c0-3-1.7-4.6-4.6-4.6h1.1
											C381.4,251.7,383,253.3,383,256.3z"/>
										<path fill="#FFFFFF" d="M379.5,6.4c-3.3,0-5,1.5-5,4.7v19.4c0,3,1.7,4.6,5,4.6h-1.2c-3.3,0-5-1.6-5-4.6V11
											c0-3.2,1.7-4.7,5-4.7H379.5z"/>
										<polygon fill="#FFFFFF" points="376.4,185.6 351.6,251.7 350.5,251.7 375.2,185.6 										"/>
										<polygon fill="#FFFFFF" points="400,35 318.1,251.7 317,251.7 399,35 										"/>
										<path fill="#FFFFFF" d="M360.7,417.4c-34.3-33.5-79.2-52.3-134.4-56.5c55.5,4,100.5,22.8,134.9,56.4
											c39.2,38.1,58.9,90.7,58.9,157.4c0,45.9-8.8,85.1-26.4,117.7c17.3-32.5,26-71.5,26-117.1
											C419.7,508.3,400,455.7,360.7,417.4z"/>
										<path fill="#FFFFFF" d="M386.3,159.4h85.1h1.2L430.3,46.1h-1.2H428l-42.7,113.3H386.3z M318.1,251.7L400,35H399h-19.5
											c-3.3,0-5-1.6-5-4.6V11c0-3.2,1.7-4.7,5-4.7h50.8c6.1,0,10.8,1.3,13.9,3.8c3.2,2.5,5.8,6.7,8.2,12.5l87.7,229h1.2h24.8
											c3,0,4.6,1.6,4.6,4.6v19.5c0,3.1-1.6,4.7-4.6,4.7H481c-3.1,0-4.6-1.6-4.6-4.7v-19.5c0-3,1.5-4.6,4.6-4.6h25.6h1.1
											l-24.7-66.1h-1.2H376.4h-1.2l-24.7,66.1h1.1h25.7c2.9,0,4.6,1.6,4.6,4.6v19.5c0,3.1-1.7,4.7-4.6,4.7h-84.7
											c-3.1,0-4.7-1.6-4.7-4.7v-19.5c0-3,1.6-4.6,4.7-4.6H317H318.1z"/>
										<path fill="#FFFFFF" d="M291.4,251.7h1.2c-3.1,0-4.7,1.6-4.7,4.6v19.5c0,3.1,1.6,4.7,4.7,4.7h-1.2c-3.1,0-4.7-1.6-4.7-4.7
											v-19.5C286.7,253.3,288.3,251.7,291.4,251.7z"/>
										<path fill="#FFFFFF" d="M217,89.9c0,33.5-19.4,51.1-58.2,52.8c38-2,57-19.7,57-52.8c0-34.2-19-52.6-57-54.8
											C197.6,37,217,55.3,217,89.9z"/>
										<path fill="#FFFFFF" d="M196.9,404.9c55.2,0,97.1,15,125.7,45c28.6,30,42.9,71.9,42.9,125.9c0,46.1-9.3,82.9-28.2,110.2
											c18.5-27.3,27.6-63.9,27.6-109.6c0-54.1-14.3-96.2-43-126.3C293.3,420.1,251.3,405,196,405h-56.7v-0.1H196.9z"/>
										<path fill="#FFFFFF" d="M158.8,35.2c-2.2-0.1-4.4-0.2-6.7-0.2C154.4,35,156.6,35.1,158.8,35.2z"/>
										<path fill="#FFFFFF" d="M152.1,142.9c2.3,0,4.6-0.1,6.7-0.2c38.8-1.8,58.2-19.4,58.2-52.8c0-34.6-19.4-52.9-58.2-54.8
											c-2.1-0.1-4.4-0.2-6.7-0.2V6.4h6.5c27.2,0,49.3,7.2,66.4,21.5c17,14.4,25.5,34.7,25.5,60.9c0,40-18.8,64.9-56.1,74.8
											c4.9,3.8,10.8,12.4,17.9,25.6l32.1,62.5h23.3c3,0,4.6,1.6,4.6,4.6v19.5c0,3.1-1.6,4.7-4.6,4.7h-33.2
											c-9.2,0-16.8-6.1-23-18.4l-35.9-72.9c-3.1-6.3-6.3-11.1-9.7-14.1c-3.5-3.1-8.2-4.8-14.3-5.1v-27H152.1z"/>
										<path fill="#FFFFFF" d="M138.3,746.6V405h1.1v340.6h59.4c59-0.4,102.4-16.5,130.1-48.4c-27.6,32.5-71.3,49-131,49.4H138.3
											z"/>
										<rect x="102.1" y="35" fill="#FFFFFF" width="1.2" height="108"/>
										<path fill="#FFFFFF" d="M138.3,405v341.5h59.5c59.7-0.4,103.4-16.9,131-49.4c3-3.5,5.8-7.2,8.5-11.1
											c18.9-27.3,28.2-64.1,28.2-110.2c0-54-14.3-95.9-42.9-125.9c-28.6-30.1-70.5-45-125.7-45h-57.6v0.1H138.3z M33.8,397.7
											v-30.5c0-4.8,2.4-7.2,7.2-7.2h162c8,0,15.8,0.3,23.3,0.9c55.3,4.2,100.1,23.1,134.4,56.5c39.3,38.3,59,91,59,157.9
											c0,45.6-8.7,84.6-26,117.1c-0.2,0.3-0.3,0.6-0.5,0.9c-7.9,14.5-17.6,27.6-29,39.4c-37.2,38.6-87.6,57.9-151.1,57.9H41
											c-4.8,0-7.2-2.3-7.2-7.2v-30.5c0-2.3,0.6-4.2,1.8-5.4c0-0.1,0-0.1,0.1-0.1c1.1-0.5,2.4-0.8,4-0.8H86v-1h1.2V404.9H41
											C36.2,404.9,33.8,402.6,33.8,397.7z"/>
										<path fill="#FFFFFF" d="M86,745.6v1H39.7c-1.6,0-2.9,0.3-4,0.8c1.2-1.2,2.9-1.8,5.3-1.8H86z"/>
										<path fill="#FFFFFF" d="M137.6,280.4H41.1c-3.4,0-5-1.6-5-4.7v-19.5c0-3,1.6-4.6,5-4.6H70V35H41.1c-3.4,0-5-1.6-5-4.6V11
											c0-3.2,1.6-4.7,5-4.7h111V35h-48.8h-1.2v108h1.2h48.4v27h-48.4v81.7h34.3c3,0,4.6,1.6,4.6,4.6v19.5
											C142.2,278.8,140.6,280.4,137.6,280.4z"/>
										<path fill="#FFFFFF" d="M32.4,367.2c0-4.8,2.4-7.2,7.3-7.2H41c-4.8,0-7.2,2.4-7.2,7.2v30.5c0,4.9,2.4,7.2,7.2,7.2h46.2
											v340.7H86V405H39.7c-4.9,0-7.3-2.3-7.3-7.2V367.2z"/>
										<path fill="#FFFFFF" d="M41,790.5h172.2c63.5,0,113.9-19.3,151.1-57.9c11.4-11.8,21.1-24.9,29-39.4
											c-8,14.8-17.8,28.3-29.5,40.4c-37.3,38.7-87.7,58.1-151.6,58.1H39.7c-4.9,0-7.3-2.4-7.3-7.3v-30.6c0-3.2,1.1-5.3,3.2-6.3
											c-1.3,1.2-1.8,3-1.8,5.4v30.5C33.8,788.2,36.2,790.5,41,790.5z"/>
									</g>
								</g>
							</g>
						</g>
					</g>
				</g>
			</g>
		</g>
	</g>
</g>
</svg>
